<mxfile host="Electron" modified="2023-10-25T10:35:45.061Z" agent="Mozilla/5.0 (Windows NT 10.0; Win64; x64) AppleWebKit/537.36 (KHTML, like Gecko) draw.io/22.0.3 Chrome/114.0.5735.289 Electron/25.8.4 Safari/537.36" etag="zMiXttJxEufREeEOTiDn" version="22.0.3" type="device">
  <diagram name="Page-1" id="wfFlOKL38SprvUSsdqLH">
    <mxGraphModel dx="1793" dy="1045" grid="1" gridSize="10" guides="1" tooltips="1" connect="1" arrows="1" fold="1" page="1" pageScale="1" pageWidth="827" pageHeight="1169" math="0" shadow="0">
      <root>
        <mxCell id="0" />
        <mxCell id="1" parent="0" />
        <mxCell id="u7_XAFOMB38h8_h5Q0QZ-1" value="&lt;b style=&quot;font-size: 20px;&quot;&gt;Terminal &lt;/b&gt;for Start, Begin and End, Exit, Return" style="text;html=1;strokeColor=none;fillColor=none;align=left;verticalAlign=middle;whiteSpace=wrap;rounded=0;fontSize=20;" parent="1" vertex="1">
          <mxGeometry x="20" y="10" width="700" height="30" as="geometry" />
        </mxCell>
        <mxCell id="u7_XAFOMB38h8_h5Q0QZ-2" value="&lt;font style=&quot;font-size: 17px;&quot;&gt;Start&lt;/font&gt;" style="rounded=1;whiteSpace=wrap;html=1;arcSize=48;" parent="1" vertex="1">
          <mxGeometry x="21" y="60" width="149" height="60" as="geometry" />
        </mxCell>
        <mxCell id="u7_XAFOMB38h8_h5Q0QZ-3" value="&lt;font style=&quot;font-size: 17px;&quot;&gt;Begin&lt;br&gt;&lt;/font&gt;" style="rounded=1;whiteSpace=wrap;html=1;arcSize=48;" parent="1" vertex="1">
          <mxGeometry x="210" y="60" width="149" height="60" as="geometry" />
        </mxCell>
        <mxCell id="u7_XAFOMB38h8_h5Q0QZ-4" value="&lt;font style=&quot;font-size: 17px;&quot;&gt;End&lt;/font&gt;" style="rounded=1;whiteSpace=wrap;html=1;arcSize=48;" parent="1" vertex="1">
          <mxGeometry x="21" y="150" width="149" height="60" as="geometry" />
        </mxCell>
        <mxCell id="u7_XAFOMB38h8_h5Q0QZ-5" value="&lt;font style=&quot;font-size: 17px;&quot;&gt;Exit&lt;/font&gt;" style="rounded=1;whiteSpace=wrap;html=1;arcSize=48;" parent="1" vertex="1">
          <mxGeometry x="210" y="150" width="149" height="60" as="geometry" />
        </mxCell>
        <mxCell id="u7_XAFOMB38h8_h5Q0QZ-6" value="&lt;font style=&quot;font-size: 17px;&quot;&gt;Return&lt;/font&gt;" style="rounded=1;whiteSpace=wrap;html=1;arcSize=48;" parent="1" vertex="1">
          <mxGeometry x="400" y="150" width="149" height="60" as="geometry" />
        </mxCell>
        <mxCell id="u7_XAFOMB38h8_h5Q0QZ-7" value="Line with Arrows တစ်တခုကနောက်တခုကိုသွာဖို့ညွှန်ပြထားတာ" style="text;html=1;strokeColor=none;fillColor=none;align=left;verticalAlign=middle;whiteSpace=wrap;rounded=0;fontSize=20;" parent="1" vertex="1">
          <mxGeometry x="20" y="250" width="630" height="30" as="geometry" />
        </mxCell>
        <mxCell id="u7_XAFOMB38h8_h5Q0QZ-8" value="" style="endArrow=classic;html=1;rounded=0;exitX=0.394;exitY=1;exitDx=0;exitDy=0;exitPerimeter=0;strokeWidth=3;" parent="1" edge="1">
          <mxGeometry width="50" height="50" relative="1" as="geometry">
            <mxPoint x="28.610000000000014" y="330" as="sourcePoint" />
            <mxPoint x="270" y="330" as="targetPoint" />
          </mxGeometry>
        </mxCell>
        <mxCell id="u7_XAFOMB38h8_h5Q0QZ-15" value="" style="endArrow=none;html=1;rounded=0;" parent="1" edge="1">
          <mxGeometry width="50" height="50" relative="1" as="geometry">
            <mxPoint x="30" y="410" as="sourcePoint" />
            <mxPoint x="110" y="410" as="targetPoint" />
          </mxGeometry>
        </mxCell>
        <mxCell id="u7_XAFOMB38h8_h5Q0QZ-16" value="" style="endArrow=none;html=1;rounded=0;jumpStyle=arc;jumpSize=26;" parent="1" edge="1">
          <mxGeometry width="50" height="50" relative="1" as="geometry">
            <mxPoint x="70" y="450" as="sourcePoint" />
            <mxPoint x="70" y="450" as="targetPoint" />
            <Array as="points">
              <mxPoint x="70" y="370" />
            </Array>
          </mxGeometry>
        </mxCell>
        <mxCell id="u7_XAFOMB38h8_h5Q0QZ-18" value="" style="endArrow=none;html=1;rounded=0;" parent="1" edge="1">
          <mxGeometry width="50" height="50" relative="1" as="geometry">
            <mxPoint x="280" y="410" as="sourcePoint" />
            <mxPoint x="200" y="410" as="targetPoint" />
          </mxGeometry>
        </mxCell>
        <mxCell id="u7_XAFOMB38h8_h5Q0QZ-19" value="" style="endArrow=none;html=1;rounded=0;jumpStyle=arc;jumpSize=26;" parent="1" edge="1">
          <mxGeometry width="50" height="50" relative="1" as="geometry">
            <mxPoint x="240" y="450" as="sourcePoint" />
            <mxPoint x="240" y="450" as="targetPoint" />
            <Array as="points">
              <mxPoint x="240" y="370" />
            </Array>
          </mxGeometry>
        </mxCell>
        <mxCell id="u7_XAFOMB38h8_h5Q0QZ-25" value="&lt;b&gt;Rectangle&lt;/b&gt; for process, task, action, operation&amp;nbsp;" style="text;html=1;strokeColor=none;fillColor=none;align=left;verticalAlign=middle;whiteSpace=wrap;rounded=0;fontSize=20;" parent="1" vertex="1">
          <mxGeometry x="20" y="480" width="630" height="30" as="geometry" />
        </mxCell>
        <mxCell id="u7_XAFOMB38h8_h5Q0QZ-27" value="Send the order" style="rounded=0;whiteSpace=wrap;html=1;fontSize=17;" parent="1" vertex="1">
          <mxGeometry x="21" y="540" width="159" height="60" as="geometry" />
        </mxCell>
        <mxCell id="u7_XAFOMB38h8_h5Q0QZ-28" value="Check the address" style="rounded=0;whiteSpace=wrap;html=1;fontSize=17;" parent="1" vertex="1">
          <mxGeometry x="210" y="540" width="159" height="60" as="geometry" />
        </mxCell>
        <mxCell id="u7_XAFOMB38h8_h5Q0QZ-29" value="install the muffler" style="rounded=0;whiteSpace=wrap;html=1;fontSize=17;" parent="1" vertex="1">
          <mxGeometry x="400" y="540" width="159" height="60" as="geometry" />
        </mxCell>
        <mxCell id="u7_XAFOMB38h8_h5Q0QZ-31" value="&lt;b&gt;Decision&amp;nbsp;&lt;/b&gt;" style="text;html=1;strokeColor=none;fillColor=none;align=left;verticalAlign=middle;whiteSpace=wrap;rounded=0;fontSize=20;" parent="1" vertex="1">
          <mxGeometry x="21" y="650" width="630" height="30" as="geometry" />
        </mxCell>
        <mxCell id="u7_XAFOMB38h8_h5Q0QZ-32" value="" style="rhombus;whiteSpace=wrap;html=1;" parent="1" vertex="1">
          <mxGeometry x="30" y="710" width="80" height="80" as="geometry" />
        </mxCell>
        <mxCell id="u7_XAFOMB38h8_h5Q0QZ-36" style="edgeStyle=orthogonalEdgeStyle;rounded=0;orthogonalLoop=1;jettySize=auto;html=1;" parent="1" source="u7_XAFOMB38h8_h5Q0QZ-33" edge="1">
          <mxGeometry relative="1" as="geometry">
            <mxPoint x="235" y="890" as="targetPoint" />
          </mxGeometry>
        </mxCell>
        <mxCell id="u7_XAFOMB38h8_h5Q0QZ-37" style="edgeStyle=orthogonalEdgeStyle;rounded=0;orthogonalLoop=1;jettySize=auto;html=1;" parent="1" source="u7_XAFOMB38h8_h5Q0QZ-33" edge="1">
          <mxGeometry relative="1" as="geometry">
            <mxPoint x="350" y="785" as="targetPoint" />
          </mxGeometry>
        </mxCell>
        <mxCell id="u7_XAFOMB38h8_h5Q0QZ-33" value="Is it cloudy?" style="rhombus;whiteSpace=wrap;html=1;fontSize=14;" parent="1" vertex="1">
          <mxGeometry x="180" y="740" width="110" height="90" as="geometry" />
        </mxCell>
        <mxCell id="u7_XAFOMB38h8_h5Q0QZ-34" value="" style="endArrow=classic;html=1;rounded=0;entryX=0.5;entryY=0;entryDx=0;entryDy=0;" parent="1" target="u7_XAFOMB38h8_h5Q0QZ-33" edge="1">
          <mxGeometry width="50" height="50" relative="1" as="geometry">
            <mxPoint x="235" y="690" as="sourcePoint" />
            <mxPoint x="270" y="640" as="targetPoint" />
          </mxGeometry>
        </mxCell>
        <mxCell id="u7_XAFOMB38h8_h5Q0QZ-39" value="&lt;font style=&quot;font-size: 17px;&quot;&gt;No&lt;/font&gt;" style="text;html=1;strokeColor=none;fillColor=none;align=center;verticalAlign=middle;whiteSpace=wrap;rounded=0;" parent="1" vertex="1">
          <mxGeometry x="290" y="760" width="60" height="30" as="geometry" />
        </mxCell>
        <mxCell id="u7_XAFOMB38h8_h5Q0QZ-40" value="&lt;font style=&quot;font-size: 17px;&quot;&gt;Yes&lt;/font&gt;" style="text;html=1;strokeColor=none;fillColor=none;align=center;verticalAlign=middle;whiteSpace=wrap;rounded=0;" parent="1" vertex="1">
          <mxGeometry x="230" y="840" width="60" height="30" as="geometry" />
        </mxCell>
        <mxCell id="u7_XAFOMB38h8_h5Q0QZ-41" value="&lt;b&gt;Circle &lt;/b&gt;flowchat ကအရမ်းရှည်သွားရင်သီးသန့်ဆွဲဖို့အတွက်&lt;b&gt; Circle &lt;/b&gt;ကိုအသုံးပြုဖို့လိုပါတယ်။" style="text;html=1;strokeColor=none;fillColor=none;align=left;verticalAlign=middle;whiteSpace=wrap;rounded=0;fontSize=20;" parent="1" vertex="1">
          <mxGeometry x="20" y="1383" width="750" height="30" as="geometry" />
        </mxCell>
        <mxCell id="u7_XAFOMB38h8_h5Q0QZ-42" value="A" style="ellipse;whiteSpace=wrap;html=1;aspect=fixed;fontSize=15;" parent="1" vertex="1">
          <mxGeometry x="21" y="1443" width="50" height="50" as="geometry" />
        </mxCell>
        <mxCell id="u7_XAFOMB38h8_h5Q0QZ-44" style="edgeStyle=orthogonalEdgeStyle;rounded=0;orthogonalLoop=1;jettySize=auto;html=1;entryX=0;entryY=0.5;entryDx=0;entryDy=0;" parent="1" target="u7_XAFOMB38h8_h5Q0QZ-43" edge="1">
          <mxGeometry relative="1" as="geometry">
            <mxPoint x="30" y="1568" as="targetPoint" />
            <mxPoint x="30" y="1568" as="sourcePoint" />
          </mxGeometry>
        </mxCell>
        <mxCell id="u7_XAFOMB38h8_h5Q0QZ-43" value="B" style="ellipse;whiteSpace=wrap;html=1;aspect=fixed;fontSize=15;" parent="1" vertex="1">
          <mxGeometry x="70.5" y="1543" width="50" height="50" as="geometry" />
        </mxCell>
        <mxCell id="u7_XAFOMB38h8_h5Q0QZ-46" style="edgeStyle=orthogonalEdgeStyle;rounded=0;orthogonalLoop=1;jettySize=auto;html=1;" parent="1" source="u7_XAFOMB38h8_h5Q0QZ-45" edge="1">
          <mxGeometry relative="1" as="geometry">
            <mxPoint x="260" y="1568" as="targetPoint" />
          </mxGeometry>
        </mxCell>
        <mxCell id="u7_XAFOMB38h8_h5Q0QZ-45" value="B" style="ellipse;whiteSpace=wrap;html=1;aspect=fixed;fontSize=15;" parent="1" vertex="1">
          <mxGeometry x="170" y="1543" width="50" height="50" as="geometry" />
        </mxCell>
        <mxCell id="P8L2PmNjFM69LGpL27ti-1" value="&lt;b&gt;Input/Output&amp;nbsp; &lt;/b&gt;user ဆီကနေ Data ကိုလက်ခံတော့မယ်ဆိုရင် သုံးရတယ်" style="text;html=1;strokeColor=none;fillColor=none;align=left;verticalAlign=middle;whiteSpace=wrap;rounded=0;fontSize=20;" parent="1" vertex="1">
          <mxGeometry x="20" y="1643" width="750" height="30" as="geometry" />
        </mxCell>
        <mxCell id="P8L2PmNjFM69LGpL27ti-2" value="" style="shape=parallelogram;perimeter=parallelogramPerimeter;whiteSpace=wrap;html=1;fixedSize=1;" parent="1" vertex="1">
          <mxGeometry x="18" y="1713" width="155" height="90" as="geometry" />
        </mxCell>
        <mxCell id="P8L2PmNjFM69LGpL27ti-3" value="Receive data" style="shape=parallelogram;perimeter=parallelogramPerimeter;whiteSpace=wrap;html=1;fixedSize=1;fontSize=16;" parent="1" vertex="1">
          <mxGeometry x="20" y="1833" width="170" height="90" as="geometry" />
        </mxCell>
        <mxCell id="P8L2PmNjFM69LGpL27ti-5" value="Generate report" style="shape=parallelogram;perimeter=parallelogramPerimeter;whiteSpace=wrap;html=1;fixedSize=1;fontSize=16;" parent="1" vertex="1">
          <mxGeometry x="220" y="1833" width="170" height="90" as="geometry" />
        </mxCell>
        <mxCell id="Vz6PAcKKCQWO5JBKhCaa-1" value="print(&quot;Hello World&quot;)" style="text;html=1;strokeColor=none;fillColor=none;align=left;verticalAlign=middle;whiteSpace=wrap;rounded=0;fontSize=15;" parent="1" vertex="1">
          <mxGeometry x="1000" y="10" width="230" height="30" as="geometry" />
        </mxCell>
        <mxCell id="Vz6PAcKKCQWO5JBKhCaa-5" style="edgeStyle=orthogonalEdgeStyle;rounded=0;orthogonalLoop=1;jettySize=auto;html=1;entryX=0.5;entryY=0;entryDx=0;entryDy=0;" parent="1" source="Vz6PAcKKCQWO5JBKhCaa-2" target="Vz6PAcKKCQWO5JBKhCaa-3" edge="1">
          <mxGeometry relative="1" as="geometry" />
        </mxCell>
        <mxCell id="Vz6PAcKKCQWO5JBKhCaa-2" value="&lt;font style=&quot;font-size: 17px;&quot;&gt;Start&lt;/font&gt;" style="rounded=1;whiteSpace=wrap;html=1;arcSize=48;" parent="1" vertex="1">
          <mxGeometry x="1010.5" y="70" width="149" height="60" as="geometry" />
        </mxCell>
        <mxCell id="Vz6PAcKKCQWO5JBKhCaa-6" style="edgeStyle=orthogonalEdgeStyle;rounded=0;orthogonalLoop=1;jettySize=auto;html=1;" parent="1" source="Vz6PAcKKCQWO5JBKhCaa-3" target="Vz6PAcKKCQWO5JBKhCaa-4" edge="1">
          <mxGeometry relative="1" as="geometry" />
        </mxCell>
        <mxCell id="Vz6PAcKKCQWO5JBKhCaa-3" value="Print &quot;Hello World&quot;" style="rounded=0;whiteSpace=wrap;html=1;fontSize=17;" parent="1" vertex="1">
          <mxGeometry x="1005.5" y="210" width="159" height="60" as="geometry" />
        </mxCell>
        <mxCell id="Vz6PAcKKCQWO5JBKhCaa-4" value="&lt;font style=&quot;font-size: 17px;&quot;&gt;End&lt;/font&gt;" style="rounded=1;whiteSpace=wrap;html=1;arcSize=48;" parent="1" vertex="1">
          <mxGeometry x="1010.5" y="350" width="149" height="60" as="geometry" />
        </mxCell>
        <mxCell id="Vz6PAcKKCQWO5JBKhCaa-11" style="edgeStyle=orthogonalEdgeStyle;rounded=0;orthogonalLoop=1;jettySize=auto;html=1;entryX=0.5;entryY=0;entryDx=0;entryDy=0;" parent="1" source="Vz6PAcKKCQWO5JBKhCaa-7" target="Vz6PAcKKCQWO5JBKhCaa-8" edge="1">
          <mxGeometry relative="1" as="geometry" />
        </mxCell>
        <mxCell id="Vz6PAcKKCQWO5JBKhCaa-7" value="&lt;font style=&quot;font-size: 17px;&quot;&gt;Start&lt;/font&gt;" style="rounded=1;whiteSpace=wrap;html=1;arcSize=48;" parent="1" vertex="1">
          <mxGeometry x="1010.5" y="500" width="149" height="60" as="geometry" />
        </mxCell>
        <mxCell id="Vz6PAcKKCQWO5JBKhCaa-12" style="edgeStyle=orthogonalEdgeStyle;rounded=0;orthogonalLoop=1;jettySize=auto;html=1;entryX=0.5;entryY=0;entryDx=0;entryDy=0;" parent="1" source="Vz6PAcKKCQWO5JBKhCaa-8" target="Vz6PAcKKCQWO5JBKhCaa-9" edge="1">
          <mxGeometry relative="1" as="geometry" />
        </mxCell>
        <mxCell id="Vz6PAcKKCQWO5JBKhCaa-8" value="Receive data" style="shape=parallelogram;perimeter=parallelogramPerimeter;whiteSpace=wrap;html=1;fixedSize=1;fontSize=16;" parent="1" vertex="1">
          <mxGeometry x="1000" y="650" width="170" height="90" as="geometry" />
        </mxCell>
        <mxCell id="Vz6PAcKKCQWO5JBKhCaa-13" style="edgeStyle=orthogonalEdgeStyle;rounded=0;orthogonalLoop=1;jettySize=auto;html=1;" parent="1" source="Vz6PAcKKCQWO5JBKhCaa-9" target="Vz6PAcKKCQWO5JBKhCaa-10" edge="1">
          <mxGeometry relative="1" as="geometry" />
        </mxCell>
        <mxCell id="Vz6PAcKKCQWO5JBKhCaa-9" value="print the name" style="rounded=0;whiteSpace=wrap;html=1;fontSize=17;" parent="1" vertex="1">
          <mxGeometry x="1005.5" y="830" width="159" height="60" as="geometry" />
        </mxCell>
        <mxCell id="Vz6PAcKKCQWO5JBKhCaa-10" value="&lt;font style=&quot;font-size: 17px;&quot;&gt;Stop&lt;/font&gt;" style="rounded=1;whiteSpace=wrap;html=1;arcSize=48;" parent="1" vertex="1">
          <mxGeometry x="1010.5" y="980" width="149" height="60" as="geometry" />
        </mxCell>
        <mxCell id="Vz6PAcKKCQWO5JBKhCaa-19" style="edgeStyle=orthogonalEdgeStyle;rounded=0;orthogonalLoop=1;jettySize=auto;html=1;" parent="1" source="Vz6PAcKKCQWO5JBKhCaa-14" target="Vz6PAcKKCQWO5JBKhCaa-15" edge="1">
          <mxGeometry relative="1" as="geometry" />
        </mxCell>
        <mxCell id="Vz6PAcKKCQWO5JBKhCaa-14" value="&lt;font style=&quot;font-size: 17px;&quot;&gt;Start&lt;/font&gt;" style="rounded=1;whiteSpace=wrap;html=1;arcSize=48;" parent="1" vertex="1">
          <mxGeometry x="1310.5" y="70" width="149" height="60" as="geometry" />
        </mxCell>
        <mxCell id="Vz6PAcKKCQWO5JBKhCaa-22" style="edgeStyle=orthogonalEdgeStyle;rounded=0;orthogonalLoop=1;jettySize=auto;html=1;" parent="1" source="Vz6PAcKKCQWO5JBKhCaa-15" target="Vz6PAcKKCQWO5JBKhCaa-16" edge="1">
          <mxGeometry relative="1" as="geometry" />
        </mxCell>
        <mxCell id="Vz6PAcKKCQWO5JBKhCaa-15" value="Receive X" style="shape=parallelogram;perimeter=parallelogramPerimeter;whiteSpace=wrap;html=1;fixedSize=1;fontSize=16;" parent="1" vertex="1">
          <mxGeometry x="1314.75" y="200" width="140.5" height="70" as="geometry" />
        </mxCell>
        <mxCell id="Vz6PAcKKCQWO5JBKhCaa-23" style="edgeStyle=orthogonalEdgeStyle;rounded=0;orthogonalLoop=1;jettySize=auto;html=1;" parent="1" source="Vz6PAcKKCQWO5JBKhCaa-16" target="Vz6PAcKKCQWO5JBKhCaa-17" edge="1">
          <mxGeometry relative="1" as="geometry" />
        </mxCell>
        <mxCell id="Vz6PAcKKCQWO5JBKhCaa-16" value="Receive Y" style="shape=parallelogram;perimeter=parallelogramPerimeter;whiteSpace=wrap;html=1;fixedSize=1;fontSize=16;" parent="1" vertex="1">
          <mxGeometry x="1314.75" y="340" width="140.5" height="70" as="geometry" />
        </mxCell>
        <mxCell id="Vz6PAcKKCQWO5JBKhCaa-24" style="edgeStyle=orthogonalEdgeStyle;rounded=0;orthogonalLoop=1;jettySize=auto;html=1;" parent="1" source="Vz6PAcKKCQWO5JBKhCaa-17" target="Vz6PAcKKCQWO5JBKhCaa-18" edge="1">
          <mxGeometry relative="1" as="geometry" />
        </mxCell>
        <mxCell id="Vz6PAcKKCQWO5JBKhCaa-17" value="Print X+Y" style="rounded=0;whiteSpace=wrap;html=1;fontSize=17;" parent="1" vertex="1">
          <mxGeometry x="1306.25" y="480" width="159" height="60" as="geometry" />
        </mxCell>
        <mxCell id="Vz6PAcKKCQWO5JBKhCaa-18" value="&lt;font style=&quot;font-size: 17px;&quot;&gt;Start&lt;/font&gt;" style="rounded=1;whiteSpace=wrap;html=1;arcSize=48;" parent="1" vertex="1">
          <mxGeometry x="1310.5" y="610" width="149" height="60" as="geometry" />
        </mxCell>
        <mxCell id="rqTLfQaHjPOIX0aFVKHO-2" value="တခုထက်မက ဖြစ်နိုင်တဲ့ အဖြေတွေအတွက်ဆို" style="text;html=1;strokeColor=none;fillColor=none;align=left;verticalAlign=middle;whiteSpace=wrap;rounded=0;fontSize=20;" parent="1" vertex="1">
          <mxGeometry x="18" y="900" width="630" height="30" as="geometry" />
        </mxCell>
        <mxCell id="rqTLfQaHjPOIX0aFVKHO-19" style="edgeStyle=orthogonalEdgeStyle;rounded=0;orthogonalLoop=1;jettySize=auto;html=1;" parent="1" source="rqTLfQaHjPOIX0aFVKHO-3" edge="1">
          <mxGeometry relative="1" as="geometry">
            <mxPoint x="303.5" y="1240" as="targetPoint" />
          </mxGeometry>
        </mxCell>
        <mxCell id="rqTLfQaHjPOIX0aFVKHO-20" value="Peach" style="edgeLabel;html=1;align=center;verticalAlign=middle;resizable=0;points=[];" parent="rqTLfQaHjPOIX0aFVKHO-19" vertex="1" connectable="0">
          <mxGeometry x="0.1245" y="-2" relative="1" as="geometry">
            <mxPoint as="offset" />
          </mxGeometry>
        </mxCell>
        <mxCell id="rqTLfQaHjPOIX0aFVKHO-3" value="Which&lt;br&gt;Fruit?" style="rhombus;whiteSpace=wrap;html=1;" parent="1" vertex="1">
          <mxGeometry x="233" y="990" width="141" height="130" as="geometry" />
        </mxCell>
        <mxCell id="rqTLfQaHjPOIX0aFVKHO-22" value="" style="endArrow=none;html=1;rounded=0;" parent="1" edge="1">
          <mxGeometry width="50" height="50" relative="1" as="geometry">
            <mxPoint x="69" y="1150" as="sourcePoint" />
            <mxPoint x="303" y="1150" as="targetPoint" />
          </mxGeometry>
        </mxCell>
        <mxCell id="rqTLfQaHjPOIX0aFVKHO-24" value="" style="endArrow=classic;html=1;rounded=0;" parent="1" edge="1">
          <mxGeometry width="50" height="50" relative="1" as="geometry">
            <mxPoint x="189" y="1150" as="sourcePoint" />
            <mxPoint x="189" y="1240" as="targetPoint" />
          </mxGeometry>
        </mxCell>
        <mxCell id="rqTLfQaHjPOIX0aFVKHO-28" value="Pear" style="edgeLabel;html=1;align=center;verticalAlign=middle;resizable=0;points=[];" parent="rqTLfQaHjPOIX0aFVKHO-24" vertex="1" connectable="0">
          <mxGeometry x="-0.159" relative="1" as="geometry">
            <mxPoint as="offset" />
          </mxGeometry>
        </mxCell>
        <mxCell id="rqTLfQaHjPOIX0aFVKHO-29" value="" style="endArrow=classic;html=1;rounded=0;" parent="1" edge="1">
          <mxGeometry width="50" height="50" relative="1" as="geometry">
            <mxPoint x="69" y="1150" as="sourcePoint" />
            <mxPoint x="69" y="1240" as="targetPoint" />
          </mxGeometry>
        </mxCell>
        <mxCell id="rqTLfQaHjPOIX0aFVKHO-31" value="Apple" style="edgeLabel;html=1;align=center;verticalAlign=middle;resizable=0;points=[];" parent="rqTLfQaHjPOIX0aFVKHO-29" vertex="1" connectable="0">
          <mxGeometry x="-0.2145" relative="1" as="geometry">
            <mxPoint as="offset" />
          </mxGeometry>
        </mxCell>
        <mxCell id="rqTLfQaHjPOIX0aFVKHO-32" value="" style="endArrow=none;html=1;rounded=0;" parent="1" edge="1">
          <mxGeometry width="50" height="50" relative="1" as="geometry">
            <mxPoint x="299" y="1150" as="sourcePoint" />
            <mxPoint x="529" y="1150" as="targetPoint" />
          </mxGeometry>
        </mxCell>
        <mxCell id="rqTLfQaHjPOIX0aFVKHO-33" value="" style="endArrow=classic;html=1;rounded=0;" parent="1" edge="1">
          <mxGeometry width="50" height="50" relative="1" as="geometry">
            <mxPoint x="529" y="1150" as="sourcePoint" />
            <mxPoint x="529" y="1240" as="targetPoint" />
          </mxGeometry>
        </mxCell>
        <mxCell id="rqTLfQaHjPOIX0aFVKHO-34" value="Other" style="edgeLabel;html=1;align=center;verticalAlign=middle;resizable=0;points=[];" parent="rqTLfQaHjPOIX0aFVKHO-33" vertex="1" connectable="0">
          <mxGeometry x="-0.159" relative="1" as="geometry">
            <mxPoint as="offset" />
          </mxGeometry>
        </mxCell>
        <mxCell id="rqTLfQaHjPOIX0aFVKHO-35" value="" style="endArrow=classic;html=1;rounded=0;" parent="1" edge="1">
          <mxGeometry width="50" height="50" relative="1" as="geometry">
            <mxPoint x="419" y="1150" as="sourcePoint" />
            <mxPoint x="419" y="1240" as="targetPoint" />
          </mxGeometry>
        </mxCell>
        <mxCell id="rqTLfQaHjPOIX0aFVKHO-36" value="Orange" style="edgeLabel;html=1;align=center;verticalAlign=middle;resizable=0;points=[];" parent="rqTLfQaHjPOIX0aFVKHO-35" vertex="1" connectable="0">
          <mxGeometry x="-0.2145" relative="1" as="geometry">
            <mxPoint as="offset" />
          </mxGeometry>
        </mxCell>
        <mxCell id="rqTLfQaHjPOIX0aFVKHO-42" style="edgeStyle=orthogonalEdgeStyle;rounded=0;orthogonalLoop=1;jettySize=auto;html=1;" parent="1" source="rqTLfQaHjPOIX0aFVKHO-37" target="rqTLfQaHjPOIX0aFVKHO-38" edge="1">
          <mxGeometry relative="1" as="geometry" />
        </mxCell>
        <mxCell id="rqTLfQaHjPOIX0aFVKHO-37" value="&lt;font style=&quot;font-size: 17px;&quot;&gt;Start&lt;/font&gt;" style="rounded=1;whiteSpace=wrap;html=1;arcSize=48;" parent="1" vertex="1">
          <mxGeometry x="1010.5" y="1220" width="149" height="60" as="geometry" />
        </mxCell>
        <mxCell id="rqTLfQaHjPOIX0aFVKHO-43" style="edgeStyle=orthogonalEdgeStyle;rounded=0;orthogonalLoop=1;jettySize=auto;html=1;entryX=0.5;entryY=0;entryDx=0;entryDy=0;" parent="1" source="rqTLfQaHjPOIX0aFVKHO-38" target="rqTLfQaHjPOIX0aFVKHO-39" edge="1">
          <mxGeometry relative="1" as="geometry" />
        </mxCell>
        <mxCell id="rqTLfQaHjPOIX0aFVKHO-38" value="Print &quot;Enter first number&quot;" style="rounded=0;whiteSpace=wrap;html=1;fontSize=17;" parent="1" vertex="1">
          <mxGeometry x="982.75" y="1353" width="204.5" height="60" as="geometry" />
        </mxCell>
        <mxCell id="rqTLfQaHjPOIX0aFVKHO-44" style="edgeStyle=orthogonalEdgeStyle;rounded=0;orthogonalLoop=1;jettySize=auto;html=1;" parent="1" source="rqTLfQaHjPOIX0aFVKHO-39" target="rqTLfQaHjPOIX0aFVKHO-40" edge="1">
          <mxGeometry relative="1" as="geometry" />
        </mxCell>
        <mxCell id="rqTLfQaHjPOIX0aFVKHO-39" value="Receive firstnum" style="shape=parallelogram;perimeter=parallelogramPerimeter;whiteSpace=wrap;html=1;fixedSize=1;fontSize=16;" parent="1" vertex="1">
          <mxGeometry x="1000" y="1480" width="170" height="90" as="geometry" />
        </mxCell>
        <mxCell id="rqTLfQaHjPOIX0aFVKHO-45" style="edgeStyle=orthogonalEdgeStyle;rounded=0;orthogonalLoop=1;jettySize=auto;html=1;" parent="1" source="rqTLfQaHjPOIX0aFVKHO-40" target="rqTLfQaHjPOIX0aFVKHO-41" edge="1">
          <mxGeometry relative="1" as="geometry" />
        </mxCell>
        <mxCell id="rqTLfQaHjPOIX0aFVKHO-40" value="Print &quot;Enter second number&quot;" style="rounded=0;whiteSpace=wrap;html=1;fontSize=17;" parent="1" vertex="1">
          <mxGeometry x="982.75" y="1643" width="204.5" height="60" as="geometry" />
        </mxCell>
        <mxCell id="rqTLfQaHjPOIX0aFVKHO-47" style="edgeStyle=orthogonalEdgeStyle;rounded=0;orthogonalLoop=1;jettySize=auto;html=1;entryX=0.5;entryY=0;entryDx=0;entryDy=0;" parent="1" source="rqTLfQaHjPOIX0aFVKHO-41" target="rqTLfQaHjPOIX0aFVKHO-46" edge="1">
          <mxGeometry relative="1" as="geometry" />
        </mxCell>
        <mxCell id="rqTLfQaHjPOIX0aFVKHO-41" value="Receive secondnum" style="shape=parallelogram;perimeter=parallelogramPerimeter;whiteSpace=wrap;html=1;fixedSize=1;fontSize=16;" parent="1" vertex="1">
          <mxGeometry x="1000" y="1770" width="170" height="90" as="geometry" />
        </mxCell>
        <mxCell id="rqTLfQaHjPOIX0aFVKHO-48" style="edgeStyle=orthogonalEdgeStyle;rounded=0;orthogonalLoop=1;jettySize=auto;html=1;entryX=0.49;entryY=0.016;entryDx=0;entryDy=0;entryPerimeter=0;" parent="1" source="rqTLfQaHjPOIX0aFVKHO-46" target="rqTLfQaHjPOIX0aFVKHO-51" edge="1">
          <mxGeometry relative="1" as="geometry">
            <mxPoint x="1300" y="2080" as="targetPoint" />
          </mxGeometry>
        </mxCell>
        <mxCell id="rqTLfQaHjPOIX0aFVKHO-50" value="Yes" style="edgeLabel;html=1;align=center;verticalAlign=middle;resizable=0;points=[];" parent="rqTLfQaHjPOIX0aFVKHO-48" vertex="1" connectable="0">
          <mxGeometry x="-0.4016" y="2" relative="1" as="geometry">
            <mxPoint as="offset" />
          </mxGeometry>
        </mxCell>
        <mxCell id="rqTLfQaHjPOIX0aFVKHO-55" style="edgeStyle=orthogonalEdgeStyle;rounded=0;orthogonalLoop=1;jettySize=auto;html=1;entryX=0.5;entryY=0;entryDx=0;entryDy=0;" parent="1" source="rqTLfQaHjPOIX0aFVKHO-46" target="rqTLfQaHjPOIX0aFVKHO-54" edge="1">
          <mxGeometry relative="1" as="geometry" />
        </mxCell>
        <mxCell id="rqTLfQaHjPOIX0aFVKHO-56" value="No" style="edgeLabel;html=1;align=center;verticalAlign=middle;resizable=0;points=[];" parent="rqTLfQaHjPOIX0aFVKHO-55" vertex="1" connectable="0">
          <mxGeometry x="0.075" y="1" relative="1" as="geometry">
            <mxPoint as="offset" />
          </mxGeometry>
        </mxCell>
        <mxCell id="rqTLfQaHjPOIX0aFVKHO-46" value="secondnum &amp;lt;= 0" style="rhombus;whiteSpace=wrap;html=1;" parent="1" vertex="1">
          <mxGeometry x="1002.5" y="1923" width="165" height="110" as="geometry" />
        </mxCell>
        <mxCell id="rqTLfQaHjPOIX0aFVKHO-51" value="print &quot;second number must be greater than 0&quot;" style="rounded=0;whiteSpace=wrap;html=1;fontSize=17;" parent="1" vertex="1">
          <mxGeometry x="1200" y="2090" width="204.5" height="60" as="geometry" />
        </mxCell>
        <mxCell id="rqTLfQaHjPOIX0aFVKHO-63" style="edgeStyle=orthogonalEdgeStyle;rounded=0;orthogonalLoop=1;jettySize=auto;html=1;" parent="1" source="rqTLfQaHjPOIX0aFVKHO-54" target="rqTLfQaHjPOIX0aFVKHO-57" edge="1">
          <mxGeometry relative="1" as="geometry" />
        </mxCell>
        <mxCell id="rqTLfQaHjPOIX0aFVKHO-54" value="print &quot;second number must be greater than 0&quot;" style="rounded=0;whiteSpace=wrap;html=1;fontSize=17;" parent="1" vertex="1">
          <mxGeometry x="820" y="2080" width="204.5" height="60" as="geometry" />
        </mxCell>
        <mxCell id="rqTLfQaHjPOIX0aFVKHO-64" style="edgeStyle=orthogonalEdgeStyle;rounded=0;orthogonalLoop=1;jettySize=auto;html=1;entryX=0;entryY=0.5;entryDx=0;entryDy=0;" parent="1" source="rqTLfQaHjPOIX0aFVKHO-57" target="rqTLfQaHjPOIX0aFVKHO-58" edge="1">
          <mxGeometry relative="1" as="geometry" />
        </mxCell>
        <mxCell id="rqTLfQaHjPOIX0aFVKHO-57" value="print firstnum/secondnum" style="rounded=0;whiteSpace=wrap;html=1;fontSize=17;" parent="1" vertex="1">
          <mxGeometry x="820" y="2190" width="204.5" height="60" as="geometry" />
        </mxCell>
        <mxCell id="rqTLfQaHjPOIX0aFVKHO-62" style="edgeStyle=orthogonalEdgeStyle;rounded=0;orthogonalLoop=1;jettySize=auto;html=1;exitX=0.5;exitY=1;exitDx=0;exitDy=0;entryX=1;entryY=0.5;entryDx=0;entryDy=0;" parent="1" source="rqTLfQaHjPOIX0aFVKHO-51" target="rqTLfQaHjPOIX0aFVKHO-58" edge="1">
          <mxGeometry relative="1" as="geometry" />
        </mxCell>
        <mxCell id="rqTLfQaHjPOIX0aFVKHO-58" value="&lt;font style=&quot;font-size: 17px;&quot;&gt;End&lt;/font&gt;" style="rounded=1;whiteSpace=wrap;html=1;arcSize=48;" parent="1" vertex="1">
          <mxGeometry x="1005.5" y="2350" width="149" height="60" as="geometry" />
        </mxCell>
        <mxCell id="rqTLfQaHjPOIX0aFVKHO-65" value="&lt;b&gt;&lt;font style=&quot;font-size: 20px;&quot;&gt;Calculator&lt;/font&gt;&lt;/b&gt;" style="text;html=1;strokeColor=none;fillColor=none;align=center;verticalAlign=middle;whiteSpace=wrap;rounded=0;" parent="1" vertex="1">
          <mxGeometry x="1660" y="20" width="210" height="30" as="geometry" />
        </mxCell>
        <mxCell id="rqTLfQaHjPOIX0aFVKHO-73" style="edgeStyle=orthogonalEdgeStyle;rounded=0;orthogonalLoop=1;jettySize=auto;html=1;" parent="1" source="rqTLfQaHjPOIX0aFVKHO-66" target="rqTLfQaHjPOIX0aFVKHO-67" edge="1">
          <mxGeometry relative="1" as="geometry" />
        </mxCell>
        <mxCell id="rqTLfQaHjPOIX0aFVKHO-66" value="&lt;font style=&quot;font-size: 17px;&quot;&gt;Start&lt;/font&gt;" style="rounded=1;whiteSpace=wrap;html=1;arcSize=48;" parent="1" vertex="1">
          <mxGeometry x="1993" y="70" width="149" height="60" as="geometry" />
        </mxCell>
        <mxCell id="rqTLfQaHjPOIX0aFVKHO-74" style="edgeStyle=orthogonalEdgeStyle;rounded=0;orthogonalLoop=1;jettySize=auto;html=1;entryX=0.5;entryY=0;entryDx=0;entryDy=0;" parent="1" source="rqTLfQaHjPOIX0aFVKHO-67" target="rqTLfQaHjPOIX0aFVKHO-68" edge="1">
          <mxGeometry relative="1" as="geometry" />
        </mxCell>
        <mxCell id="rqTLfQaHjPOIX0aFVKHO-67" value="Print &quot;Enter first number&quot;" style="rounded=0;whiteSpace=wrap;html=1;fontSize=17;" parent="1" vertex="1">
          <mxGeometry x="1965" y="190" width="204.5" height="60" as="geometry" />
        </mxCell>
        <mxCell id="rqTLfQaHjPOIX0aFVKHO-75" style="edgeStyle=orthogonalEdgeStyle;rounded=0;orthogonalLoop=1;jettySize=auto;html=1;" parent="1" source="rqTLfQaHjPOIX0aFVKHO-68" target="rqTLfQaHjPOIX0aFVKHO-69" edge="1">
          <mxGeometry relative="1" as="geometry" />
        </mxCell>
        <mxCell id="rqTLfQaHjPOIX0aFVKHO-68" value="Receive firstnum" style="shape=parallelogram;perimeter=parallelogramPerimeter;whiteSpace=wrap;html=1;fixedSize=1;fontSize=16;" parent="1" vertex="1">
          <mxGeometry x="1983" y="310" width="170" height="90" as="geometry" />
        </mxCell>
        <mxCell id="rqTLfQaHjPOIX0aFVKHO-76" style="edgeStyle=orthogonalEdgeStyle;rounded=0;orthogonalLoop=1;jettySize=auto;html=1;" parent="1" source="rqTLfQaHjPOIX0aFVKHO-69" target="rqTLfQaHjPOIX0aFVKHO-70" edge="1">
          <mxGeometry relative="1" as="geometry" />
        </mxCell>
        <mxCell id="rqTLfQaHjPOIX0aFVKHO-69" value="Print &quot;Enter second number&quot;" style="rounded=0;whiteSpace=wrap;html=1;fontSize=17;" parent="1" vertex="1">
          <mxGeometry x="1965" y="460" width="204.5" height="60" as="geometry" />
        </mxCell>
        <mxCell id="rqTLfQaHjPOIX0aFVKHO-77" style="edgeStyle=orthogonalEdgeStyle;rounded=0;orthogonalLoop=1;jettySize=auto;html=1;entryX=0.5;entryY=0;entryDx=0;entryDy=0;" parent="1" source="rqTLfQaHjPOIX0aFVKHO-70" target="rqTLfQaHjPOIX0aFVKHO-71" edge="1">
          <mxGeometry relative="1" as="geometry" />
        </mxCell>
        <mxCell id="rqTLfQaHjPOIX0aFVKHO-70" value="Receive secondnum" style="shape=parallelogram;perimeter=parallelogramPerimeter;whiteSpace=wrap;html=1;fixedSize=1;fontSize=16;" parent="1" vertex="1">
          <mxGeometry x="1982.25" y="590" width="170" height="90" as="geometry" />
        </mxCell>
        <mxCell id="rqTLfQaHjPOIX0aFVKHO-78" style="edgeStyle=orthogonalEdgeStyle;rounded=0;orthogonalLoop=1;jettySize=auto;html=1;entryX=0.5;entryY=0;entryDx=0;entryDy=0;" parent="1" source="rqTLfQaHjPOIX0aFVKHO-71" target="rqTLfQaHjPOIX0aFVKHO-72" edge="1">
          <mxGeometry relative="1" as="geometry" />
        </mxCell>
        <mxCell id="rqTLfQaHjPOIX0aFVKHO-71" value="Print &quot;Enter operator(+ , -, *,/)&quot;" style="rounded=0;whiteSpace=wrap;html=1;fontSize=17;" parent="1" vertex="1">
          <mxGeometry x="1945.1299999999999" y="755" width="244.25" height="60" as="geometry" />
        </mxCell>
        <mxCell id="rqTLfQaHjPOIX0aFVKHO-80" style="edgeStyle=orthogonalEdgeStyle;rounded=0;orthogonalLoop=1;jettySize=auto;html=1;" parent="1" source="rqTLfQaHjPOIX0aFVKHO-72" target="rqTLfQaHjPOIX0aFVKHO-79" edge="1">
          <mxGeometry relative="1" as="geometry" />
        </mxCell>
        <mxCell id="rqTLfQaHjPOIX0aFVKHO-72" value="Receive opeator" style="shape=parallelogram;perimeter=parallelogramPerimeter;whiteSpace=wrap;html=1;fixedSize=1;fontSize=16;" parent="1" vertex="1">
          <mxGeometry x="1982.25" y="890" width="170" height="90" as="geometry" />
        </mxCell>
        <mxCell id="rqTLfQaHjPOIX0aFVKHO-85" style="edgeStyle=orthogonalEdgeStyle;rounded=0;orthogonalLoop=1;jettySize=auto;html=1;" parent="1" source="rqTLfQaHjPOIX0aFVKHO-79" target="rqTLfQaHjPOIX0aFVKHO-82" edge="1">
          <mxGeometry relative="1" as="geometry" />
        </mxCell>
        <mxCell id="rqTLfQaHjPOIX0aFVKHO-90" value="No" style="edgeLabel;html=1;align=center;verticalAlign=middle;resizable=0;points=[];" parent="rqTLfQaHjPOIX0aFVKHO-85" vertex="1" connectable="0">
          <mxGeometry x="-0.4847" y="-5" relative="1" as="geometry">
            <mxPoint as="offset" />
          </mxGeometry>
        </mxCell>
        <mxCell id="rqTLfQaHjPOIX0aFVKHO-88" style="edgeStyle=orthogonalEdgeStyle;rounded=0;orthogonalLoop=1;jettySize=auto;html=1;entryX=0.5;entryY=0;entryDx=0;entryDy=0;" parent="1" source="rqTLfQaHjPOIX0aFVKHO-79" target="rqTLfQaHjPOIX0aFVKHO-87" edge="1">
          <mxGeometry relative="1" as="geometry" />
        </mxCell>
        <mxCell id="rqTLfQaHjPOIX0aFVKHO-89" value="Yes" style="edgeLabel;html=1;align=center;verticalAlign=middle;resizable=0;points=[];" parent="rqTLfQaHjPOIX0aFVKHO-88" vertex="1" connectable="0">
          <mxGeometry x="-0.4518" y="5" relative="1" as="geometry">
            <mxPoint as="offset" />
          </mxGeometry>
        </mxCell>
        <mxCell id="rqTLfQaHjPOIX0aFVKHO-79" value="If Number" style="rhombus;whiteSpace=wrap;html=1;" parent="1" vertex="1">
          <mxGeometry x="1962" y="1050" width="212" height="160" as="geometry" />
        </mxCell>
        <mxCell id="rqTLfQaHjPOIX0aFVKHO-102" style="edgeStyle=orthogonalEdgeStyle;rounded=0;orthogonalLoop=1;jettySize=auto;html=1;entryX=1;entryY=0.5;entryDx=0;entryDy=0;exitX=0.5;exitY=1;exitDx=0;exitDy=0;" parent="1" source="rqTLfQaHjPOIX0aFVKHO-82" target="rqTLfQaHjPOIX0aFVKHO-99" edge="1">
          <mxGeometry relative="1" as="geometry" />
        </mxCell>
        <mxCell id="rqTLfQaHjPOIX0aFVKHO-82" value="Print &quot;Please enter number only&quot;" style="rounded=0;whiteSpace=wrap;html=1;fontSize=17;" parent="1" vertex="1">
          <mxGeometry x="2200" y="1293" width="244.25" height="60" as="geometry" />
        </mxCell>
        <mxCell id="rqTLfQaHjPOIX0aFVKHO-94" style="edgeStyle=orthogonalEdgeStyle;rounded=0;orthogonalLoop=1;jettySize=auto;html=1;" parent="1" source="rqTLfQaHjPOIX0aFVKHO-87" target="rqTLfQaHjPOIX0aFVKHO-91" edge="1">
          <mxGeometry relative="1" as="geometry" />
        </mxCell>
        <mxCell id="rqTLfQaHjPOIX0aFVKHO-96" value="Yes" style="edgeLabel;html=1;align=center;verticalAlign=middle;resizable=0;points=[];" parent="rqTLfQaHjPOIX0aFVKHO-94" vertex="1" connectable="0">
          <mxGeometry x="-0.2343" y="1" relative="1" as="geometry">
            <mxPoint as="offset" />
          </mxGeometry>
        </mxCell>
        <mxCell id="rqTLfQaHjPOIX0aFVKHO-97" style="edgeStyle=orthogonalEdgeStyle;rounded=0;orthogonalLoop=1;jettySize=auto;html=1;" parent="1" source="rqTLfQaHjPOIX0aFVKHO-87" target="rqTLfQaHjPOIX0aFVKHO-93" edge="1">
          <mxGeometry relative="1" as="geometry" />
        </mxCell>
        <mxCell id="rqTLfQaHjPOIX0aFVKHO-98" value="No" style="edgeLabel;html=1;align=center;verticalAlign=middle;resizable=0;points=[];" parent="rqTLfQaHjPOIX0aFVKHO-97" vertex="1" connectable="0">
          <mxGeometry x="-0.5621" y="-1" relative="1" as="geometry">
            <mxPoint as="offset" />
          </mxGeometry>
        </mxCell>
        <mxCell id="rqTLfQaHjPOIX0aFVKHO-87" value="output = true" style="rhombus;whiteSpace=wrap;html=1;" parent="1" vertex="1">
          <mxGeometry x="1720" y="1280" width="212" height="160" as="geometry" />
        </mxCell>
        <mxCell id="rqTLfQaHjPOIX0aFVKHO-95" style="edgeStyle=orthogonalEdgeStyle;rounded=0;orthogonalLoop=1;jettySize=auto;html=1;" parent="1" source="rqTLfQaHjPOIX0aFVKHO-91" target="rqTLfQaHjPOIX0aFVKHO-92" edge="1">
          <mxGeometry relative="1" as="geometry" />
        </mxCell>
        <mxCell id="rqTLfQaHjPOIX0aFVKHO-91" value="process calculation based on operator" style="rounded=0;whiteSpace=wrap;html=1;fontSize=17;" parent="1" vertex="1">
          <mxGeometry x="1670" y="1520" width="244.25" height="60" as="geometry" />
        </mxCell>
        <mxCell id="rqTLfQaHjPOIX0aFVKHO-100" style="edgeStyle=orthogonalEdgeStyle;rounded=0;orthogonalLoop=1;jettySize=auto;html=1;entryX=0;entryY=0.5;entryDx=0;entryDy=0;exitX=0.5;exitY=1;exitDx=0;exitDy=0;" parent="1" source="rqTLfQaHjPOIX0aFVKHO-92" target="rqTLfQaHjPOIX0aFVKHO-99" edge="1">
          <mxGeometry relative="1" as="geometry" />
        </mxCell>
        <mxCell id="rqTLfQaHjPOIX0aFVKHO-92" value="Print &quot;Result is&quot;" style="rounded=0;whiteSpace=wrap;html=1;fontSize=17;" parent="1" vertex="1">
          <mxGeometry x="1670" y="1660" width="244.25" height="60" as="geometry" />
        </mxCell>
        <mxCell id="rqTLfQaHjPOIX0aFVKHO-101" style="edgeStyle=orthogonalEdgeStyle;rounded=0;orthogonalLoop=1;jettySize=auto;html=1;" parent="1" source="rqTLfQaHjPOIX0aFVKHO-93" target="rqTLfQaHjPOIX0aFVKHO-99" edge="1">
          <mxGeometry relative="1" as="geometry" />
        </mxCell>
        <mxCell id="rqTLfQaHjPOIX0aFVKHO-93" value="Print &quot;Wrong operator&quot;" style="rounded=0;whiteSpace=wrap;html=1;fontSize=17;" parent="1" vertex="1">
          <mxGeometry x="1993" y="1520" width="244.25" height="60" as="geometry" />
        </mxCell>
        <mxCell id="rqTLfQaHjPOIX0aFVKHO-99" value="&lt;font style=&quot;font-size: 17px;&quot;&gt;End&lt;/font&gt;" style="rounded=1;whiteSpace=wrap;html=1;arcSize=48;" parent="1" vertex="1">
          <mxGeometry x="1992.75" y="1790" width="149" height="60" as="geometry" />
        </mxCell>
        <mxCell id="_Akzsy43yuor-rb6kwxH-1" value="&lt;b&gt;&lt;font style=&quot;font-size: 20px;&quot;&gt;While loop&lt;/font&gt;&lt;/b&gt;" style="text;html=1;strokeColor=none;fillColor=none;align=center;verticalAlign=middle;whiteSpace=wrap;rounded=0;" parent="1" vertex="1">
          <mxGeometry x="1680" y="1940" width="210" height="30" as="geometry" />
        </mxCell>
        <mxCell id="_Akzsy43yuor-rb6kwxH-7" style="edgeStyle=orthogonalEdgeStyle;rounded=0;orthogonalLoop=1;jettySize=auto;html=1;entryX=0.5;entryY=0;entryDx=0;entryDy=0;" parent="1" source="_Akzsy43yuor-rb6kwxH-2" target="_Akzsy43yuor-rb6kwxH-3" edge="1">
          <mxGeometry relative="1" as="geometry" />
        </mxCell>
        <mxCell id="_Akzsy43yuor-rb6kwxH-2" value="&lt;font style=&quot;font-size: 17px;&quot;&gt;Start&lt;/font&gt;" style="rounded=1;whiteSpace=wrap;html=1;arcSize=48;" parent="1" vertex="1">
          <mxGeometry x="1993.5" y="1990" width="149" height="60" as="geometry" />
        </mxCell>
        <mxCell id="_Akzsy43yuor-rb6kwxH-8" style="edgeStyle=orthogonalEdgeStyle;rounded=0;orthogonalLoop=1;jettySize=auto;html=1;" parent="1" source="_Akzsy43yuor-rb6kwxH-3" target="_Akzsy43yuor-rb6kwxH-4" edge="1">
          <mxGeometry relative="1" as="geometry" />
        </mxCell>
        <mxCell id="_Akzsy43yuor-rb6kwxH-12" value="Yes" style="edgeLabel;html=1;align=center;verticalAlign=middle;resizable=0;points=[];" parent="_Akzsy43yuor-rb6kwxH-8" vertex="1" connectable="0">
          <mxGeometry x="-0.2004" y="-2" relative="1" as="geometry">
            <mxPoint as="offset" />
          </mxGeometry>
        </mxCell>
        <mxCell id="_Akzsy43yuor-rb6kwxH-11" style="edgeStyle=orthogonalEdgeStyle;rounded=0;orthogonalLoop=1;jettySize=auto;html=1;entryX=0;entryY=0.5;entryDx=0;entryDy=0;exitX=-0.002;exitY=0.415;exitDx=0;exitDy=0;exitPerimeter=0;" parent="1" source="_Akzsy43yuor-rb6kwxH-4" target="_Akzsy43yuor-rb6kwxH-3" edge="1">
          <mxGeometry relative="1" as="geometry">
            <mxPoint x="1850" y="2400" as="sourcePoint" />
            <Array as="points">
              <mxPoint x="1860" y="2385" />
              <mxPoint x="1860" y="2200" />
            </Array>
          </mxGeometry>
        </mxCell>
        <mxCell id="_Akzsy43yuor-rb6kwxH-13" style="edgeStyle=orthogonalEdgeStyle;rounded=0;orthogonalLoop=1;jettySize=auto;html=1;entryX=1;entryY=0.5;entryDx=0;entryDy=0;exitX=1;exitY=0.5;exitDx=0;exitDy=0;" parent="1" source="_Akzsy43yuor-rb6kwxH-3" target="_Akzsy43yuor-rb6kwxH-6" edge="1">
          <mxGeometry relative="1" as="geometry">
            <Array as="points">
              <mxPoint x="2240" y="2200" />
              <mxPoint x="2240" y="2530" />
            </Array>
          </mxGeometry>
        </mxCell>
        <mxCell id="_Akzsy43yuor-rb6kwxH-14" value="No" style="edgeLabel;html=1;align=center;verticalAlign=middle;resizable=0;points=[];" parent="_Akzsy43yuor-rb6kwxH-13" vertex="1" connectable="0">
          <mxGeometry x="-0.8942" y="1" relative="1" as="geometry">
            <mxPoint as="offset" />
          </mxGeometry>
        </mxCell>
        <mxCell id="_Akzsy43yuor-rb6kwxH-3" value="condition" style="rhombus;whiteSpace=wrap;html=1;" parent="1" vertex="1">
          <mxGeometry x="1962" y="2120" width="212" height="160" as="geometry" />
        </mxCell>
        <mxCell id="_Akzsy43yuor-rb6kwxH-4" value="Process" style="rounded=0;whiteSpace=wrap;html=1;fontSize=17;" parent="1" vertex="1">
          <mxGeometry x="1945.88" y="2360" width="244.25" height="60" as="geometry" />
        </mxCell>
        <mxCell id="_Akzsy43yuor-rb6kwxH-6" value="&lt;font style=&quot;font-size: 17px;&quot;&gt;End&lt;/font&gt;" style="rounded=1;whiteSpace=wrap;html=1;arcSize=48;" parent="1" vertex="1">
          <mxGeometry x="1992.75" y="2500" width="149" height="60" as="geometry" />
        </mxCell>
        <mxCell id="5I9mzwkqL4-cDGX40RpF-1" value="&lt;b&gt;&lt;font style=&quot;font-size: 20px;&quot;&gt;Do While loop&lt;/font&gt;&lt;/b&gt;" style="text;html=1;strokeColor=none;fillColor=none;align=center;verticalAlign=middle;whiteSpace=wrap;rounded=0;" vertex="1" parent="1">
          <mxGeometry x="1680" y="2610" width="210" height="30" as="geometry" />
        </mxCell>
        <mxCell id="5I9mzwkqL4-cDGX40RpF-12" style="edgeStyle=orthogonalEdgeStyle;rounded=0;orthogonalLoop=1;jettySize=auto;html=1;entryX=0.5;entryY=0;entryDx=0;entryDy=0;" edge="1" parent="1" source="5I9mzwkqL4-cDGX40RpF-3" target="5I9mzwkqL4-cDGX40RpF-10">
          <mxGeometry relative="1" as="geometry" />
        </mxCell>
        <mxCell id="5I9mzwkqL4-cDGX40RpF-3" value="&lt;font style=&quot;font-size: 17px;&quot;&gt;Start&lt;/font&gt;" style="rounded=1;whiteSpace=wrap;html=1;arcSize=48;" vertex="1" parent="1">
          <mxGeometry x="1993.41" y="2650" width="149" height="60" as="geometry" />
        </mxCell>
        <mxCell id="5I9mzwkqL4-cDGX40RpF-14" style="edgeStyle=orthogonalEdgeStyle;rounded=0;orthogonalLoop=1;jettySize=auto;html=1;entryX=1;entryY=0.5;entryDx=0;entryDy=0;exitX=1;exitY=0.5;exitDx=0;exitDy=0;" edge="1" parent="1" source="5I9mzwkqL4-cDGX40RpF-9" target="5I9mzwkqL4-cDGX40RpF-11">
          <mxGeometry relative="1" as="geometry" />
        </mxCell>
        <mxCell id="5I9mzwkqL4-cDGX40RpF-18" value="No" style="edgeLabel;html=1;align=center;verticalAlign=middle;resizable=0;points=[];" vertex="1" connectable="0" parent="5I9mzwkqL4-cDGX40RpF-14">
          <mxGeometry x="-0.1158" y="3" relative="1" as="geometry">
            <mxPoint as="offset" />
          </mxGeometry>
        </mxCell>
        <mxCell id="5I9mzwkqL4-cDGX40RpF-15" style="edgeStyle=orthogonalEdgeStyle;rounded=0;orthogonalLoop=1;jettySize=auto;html=1;entryX=0;entryY=0.5;entryDx=0;entryDy=0;exitX=0;exitY=0.5;exitDx=0;exitDy=0;" edge="1" parent="1" source="5I9mzwkqL4-cDGX40RpF-9" target="5I9mzwkqL4-cDGX40RpF-10">
          <mxGeometry relative="1" as="geometry">
            <Array as="points">
              <mxPoint x="1870" y="2990" />
              <mxPoint x="1870" y="2820" />
            </Array>
          </mxGeometry>
        </mxCell>
        <mxCell id="5I9mzwkqL4-cDGX40RpF-16" value="Yes" style="edgeLabel;html=1;align=center;verticalAlign=middle;resizable=0;points=[];" vertex="1" connectable="0" parent="5I9mzwkqL4-cDGX40RpF-15">
          <mxGeometry x="0.0625" y="-3" relative="1" as="geometry">
            <mxPoint y="1" as="offset" />
          </mxGeometry>
        </mxCell>
        <mxCell id="5I9mzwkqL4-cDGX40RpF-9" value="condition" style="rhombus;whiteSpace=wrap;html=1;" vertex="1" parent="1">
          <mxGeometry x="1961.91" y="2910" width="212" height="160" as="geometry" />
        </mxCell>
        <mxCell id="5I9mzwkqL4-cDGX40RpF-13" style="edgeStyle=orthogonalEdgeStyle;rounded=0;orthogonalLoop=1;jettySize=auto;html=1;entryX=0.5;entryY=0;entryDx=0;entryDy=0;" edge="1" parent="1" source="5I9mzwkqL4-cDGX40RpF-10" target="5I9mzwkqL4-cDGX40RpF-9">
          <mxGeometry relative="1" as="geometry" />
        </mxCell>
        <mxCell id="5I9mzwkqL4-cDGX40RpF-10" value="Process" style="rounded=0;whiteSpace=wrap;html=1;fontSize=17;" vertex="1" parent="1">
          <mxGeometry x="1945.7900000000002" y="2790" width="244.25" height="60" as="geometry" />
        </mxCell>
        <mxCell id="5I9mzwkqL4-cDGX40RpF-11" value="&lt;font style=&quot;font-size: 17px;&quot;&gt;End&lt;/font&gt;" style="rounded=1;whiteSpace=wrap;html=1;arcSize=48;" vertex="1" parent="1">
          <mxGeometry x="1993.5" y="3160" width="149" height="60" as="geometry" />
        </mxCell>
      </root>
    </mxGraphModel>
  </diagram>
</mxfile>
